<svg width="36" height="36" xmlns="http://www.w3.org/2000/svg" xmlns:xlink="http://www.w3.org/1999/xlink" overflow="hidden"><defs><clipPath id="clip0"><rect x="868" y="552" width="36" height="36"/></clipPath><clipPath id="clip1"><rect x="871" y="555" width="30" height="30"/></clipPath><clipPath id="clip2"><rect x="871" y="555" width="30" height="30"/></clipPath><clipPath id="clip3"><rect x="871" y="555" width="30" height="30"/></clipPath></defs><g clip-path="url(#clip0)" transform="translate(-868 -552)"><path d="M869.5 570.5C869.5 561.111 877.111 553.5 886.5 553.5 895.889 553.5 903.5 561.111 903.5 570.5 903.5 579.889 895.889 587.5 886.5 587.5 877.111 587.5 869.5 579.889 869.5 570.5Z" stroke="#1E4976" stroke-width="0.666667" stroke-linejoin="round" stroke-miterlimit="10" fill="#FFFFFF" fill-rule="evenodd"/><g clip-path="url(#clip1)"><g clip-path="url(#clip2)"><g clip-path="url(#clip3)"><path d="M881.031 566.25C878.781 568.125 877.562 569.844 877.188 570.75 875.094 575.812 878.156 580.719 880.375 581.938L881.188 582.375 880.812 581.531C880 579.688 879.125 576.188 881.906 572.719 881.75 574.188 881.75 576.75 883.406 578.75 885.594 581.438 885.625 583.438 885.625 583.469L885.625 583.781 885.938 583.781C889.75 583.781 893.219 581.469 894.656 577.938 895.75 575.812 895.938 572.375 894.344 570.25L893.438 569.031 893.812 570.5C894.031 571.531 893.688 572.562 892.875 573.25 892.125 573.938 891.062 574.125 890.125 573.719 889.312 573.438 888.688 572.812 888.438 572.031 888.156 571.094 888.344 570.094 888.938 569.344 890.281 567.5 890.688 565.094 890.062 562.688 889.312 559.844 887.281 557.469 884.562 556.281L883.75 555.938 884.156 556.719C886.531 561.188 882.344 565.156 881.031 566.25ZM885.375 557.406C887.375 558.625 888.844 560.562 889.438 562.844 890.031 565.062 889.656 567.281 888.375 568.969 887.688 569.906 887.469 571.094 887.812 572.219 888.125 573.188 888.906 573.969 889.875 574.312 891.031 574.781 892.344 574.562 893.25 573.719 893.875 573.188 894.281 572.469 894.406 571.688 895.156 573.562 894.875 576.062 894.062 577.656 892.75 580.875 889.688 583.031 886.219 583.156 886.125 582.438 885.75 580.625 883.875 578.375 881.719 575.75 882.656 571.938 882.688 571.781L882.969 570.656 882.156 571.5C878.75 575.031 879.188 578.75 879.844 580.844 877.969 579.156 876.031 575.156 877.719 571.031 878.094 570.125 879.375 568.438 881.375 566.781 884.125 564.5 886.406 560.906 885.031 557.281 885.094 557.219 885.281 557.344 885.375 557.406Z"/></g></g></g></g></svg>