<svg width="37" height="36" xmlns="http://www.w3.org/2000/svg" xmlns:xlink="http://www.w3.org/1999/xlink" overflow="hidden"><defs><clipPath id="clip0"><rect x="918" y="552" width="37" height="36"/></clipPath><clipPath id="clip1"><rect x="927" y="573" width="10" height="11"/></clipPath><clipPath id="clip2"><rect x="927" y="573" width="10" height="11"/></clipPath><clipPath id="clip3"><rect x="927" y="573" width="10" height="11"/></clipPath><clipPath id="clip4"><rect x="924" y="553" width="25" height="24"/></clipPath><clipPath id="clip5"><rect x="924" y="553" width="25" height="24"/></clipPath><clipPath id="clip6"><rect x="924" y="553" width="25" height="24"/></clipPath><clipPath id="clip7"><rect x="932" y="573" width="11" height="11"/></clipPath><clipPath id="clip8"><rect x="932" y="573" width="11" height="11"/></clipPath><clipPath id="clip9"><rect x="932" y="573" width="11" height="11"/></clipPath><clipPath id="clip10"><rect x="938" y="573" width="11" height="11"/></clipPath><clipPath id="clip11"><rect x="938" y="573" width="11" height="11"/></clipPath><clipPath id="clip12"><rect x="938" y="573" width="11" height="11"/></clipPath></defs><g clip-path="url(#clip0)" transform="translate(-918 -552)"><path d="M919.5 570.5C919.5 561.111 927.335 553.5 937 553.5 946.665 553.5 954.5 561.111 954.5 570.5 954.5 579.889 946.665 587.5 937 587.5 927.335 587.5 919.5 579.889 919.5 570.5Z" stroke="#1E4976" stroke-width="0.666667" stroke-linejoin="round" stroke-miterlimit="10" fill="#FFFFFF" fill-rule="evenodd"/><g clip-path="url(#clip1)"><g clip-path="url(#clip2)"><g clip-path="url(#clip3)"><path d="M3.27083 1.89583 2.29167 2.84375C2.16667 2.96875 1.96875 2.95833 1.85417 2.84375 1.72917 2.71875 1.73958 2.52083 1.85417 2.40625L3.34375 0.947917C3.39583 0.895833 3.45833 0.864583 3.53125 0.864583 3.54167 0.864583 3.55208 0.864583 3.5625 0.864583 3.57292 0.864583 3.58333 0.864583 3.60417 0.864583L3.625 0.864583 3.64583 0.864583C3.69792 0.875 3.75 0.90625 3.78125 0.947917L5.23958 2.4375C5.36458 2.5625 5.35417 2.76042 5.23958 2.875 5.11458 3 4.91667 2.98958 4.80208 2.875L3.90625 1.95833C3.52083 3.91667 4.0625 5.60417 5.53125 6.96875 6.26042 7.63542 7.10417 8.16667 8.03125 8.53125 8.19792 8.59375 8.28125 8.77083 8.21875 8.92708 8.15625 9.09375 7.97917 9.17708 7.82292 9.11458 6.82292 8.72917 5.90625 8.15625 5.11458 7.42708 3.97917 6.38542 2.76042 4.58333 3.27083 1.89583Z" transform="matrix(1 0 0 1.1 927 573)"/></g></g></g><g clip-path="url(#clip4)"><g clip-path="url(#clip5)"><g clip-path="url(#clip6)"><path d="M14 13.3387 14 9.83875 7.22175 13.3535 6.4825 3.25 4.0175 3.25 3.25 13.75 3.25 20.75 20.75 20.75 20.75 9.83875ZM6.0175 3.75 6.109 5 4.391 5 4.4825 3.75ZM4.35425 5.5 6.14575 5.5 6.731 13.5 3.769 13.5ZM7.075 13.9923 13.5 10.6613 13.5 14.1613 20.25 10.6613 20.25 20.25 3.75 20.25 3.75 14 6.7675 14Z" transform="matrix(1.04167 0 0 1 924 553)"/><path d="M5 18.75 9 18.75 9 16.25 5 16.25ZM8.5 18.25 7.25 18.25 7.25 16.75 8.5 16.75ZM5.5 16.75 6.75 16.75 6.75 18.25 5.5 18.25Z" transform="matrix(1.04167 0 0 1 924 553)"/><path d="M10 18.75 14 18.75 14 16.25 10 16.25ZM13.5 18.25 12.25 18.25 12.25 16.75 13.5 16.75ZM10.5 16.75 11.75 16.75 11.75 18.25 10.5 18.25Z" transform="matrix(1.04167 0 0 1 924 553)"/><path d="M19 16.25 15 16.25 15 18.75 19 18.75ZM15.5 16.75 16.75 16.75 16.75 18.25 15.5 18.25ZM18.5 18.25 17.25 18.25 17.25 16.75 18.5 16.75Z" transform="matrix(1.04167 0 0 1 924 553)"/></g></g></g><g clip-path="url(#clip7)"><g clip-path="url(#clip8)"><g clip-path="url(#clip9)"><path d="M935.598 575.085 934.521 576.128C934.383 576.266 934.166 576.254 934.04 576.128 933.902 575.991 933.914 575.773 934.04 575.647L935.678 574.043C935.735 573.985 935.804 573.951 935.884 573.951 935.896 573.951 935.907 573.951 935.919 573.951 935.93 573.951 935.942 573.951 935.965 573.951L935.987 573.951 936.01 573.951C936.068 573.963 936.125 573.997 936.159 574.043L937.764 575.681C937.901 575.819 937.89 576.036 937.764 576.162 937.626 576.3 937.408 576.289 937.282 576.162L936.297 575.154C935.873 577.308 936.469 579.165 938.084 580.666 938.886 581.399 939.815 581.983 940.834 582.384 941.018 582.453 941.109 582.648 941.041 582.82 940.972 583.003 940.777 583.095 940.605 583.026 939.505 582.602 938.497 581.972 937.626 581.17 936.377 580.024 935.036 578.042 935.598 575.085Z"/></g></g></g><g clip-path="url(#clip10)"><g clip-path="url(#clip11)"><g clip-path="url(#clip12)"><path d="M941.598 575.085 940.521 576.128C940.383 576.266 940.166 576.254 940.04 576.128 939.902 575.991 939.914 575.773 940.04 575.647L941.678 574.043C941.735 573.985 941.804 573.951 941.884 573.951 941.896 573.951 941.907 573.951 941.919 573.951 941.93 573.951 941.942 573.951 941.965 573.951L941.987 573.951 942.01 573.951C942.068 573.963 942.125 573.997 942.159 574.043L943.764 575.681C943.901 575.819 943.89 576.036 943.764 576.162 943.626 576.3 943.408 576.289 943.282 576.162L942.297 575.154C941.873 577.308 942.469 579.165 944.084 580.666 944.886 581.399 945.815 581.983 946.834 582.384 947.018 582.453 947.109 582.648 947.041 582.82 946.972 583.003 946.777 583.095 946.605 583.026 945.505 582.602 944.497 581.972 943.626 581.17 942.377 580.024 941.036 578.042 941.598 575.085Z"/></g></g></g></g></svg>