<?xml version="1.0" encoding="UTF-8" standalone="no"?>
<!-- Generator: Adobe Illustrator 25.0.0, SVG Export Plug-In . SVG Version: 6.00 Build 0)  -->

<svg
   xmlns:dc="http://purl.org/dc/elements/1.1/"
   xmlns:cc="http://creativecommons.org/ns#"
   xmlns:rdf="http://www.w3.org/1999/02/22-rdf-syntax-ns#"
   xmlns:svg="http://www.w3.org/2000/svg"
   xmlns="http://www.w3.org/2000/svg"
   xmlns:sodipodi="http://sodipodi.sourceforge.net/DTD/sodipodi-0.dtd"
   xmlns:inkscape="http://www.inkscape.org/namespaces/inkscape"
   version="1.1"
   id="Ebene_1"
   x="0px"
   y="0px"
   viewBox="0 0 279.79999 253.5852"
   xml:space="preserve"
   inkscape:version="0.91 r13725"
   sodipodi:docname="InDEED_Logo_pos.svg"
   width="279.79999"
   height="253.58521"
   inkscape:export-filename="C:\Users\azeiselmair\Desktop\InDEED_Logo_neg_hg.png"
   inkscape:export-xdpi="321"
   inkscape:export-ydpi="321"><metadata
     id="metadata43"><rdf:RDF><cc:Work
         rdf:about=""><dc:format>image/svg+xml</dc:format><dc:type
           rdf:resource="http://purl.org/dc/dcmitype/StillImage" /><dc:title></dc:title></cc:Work></rdf:RDF></metadata><defs
     id="defs41" /><sodipodi:namedview
     pagecolor="#ffffff"
     bordercolor="#666666"
     borderopacity="1"
     objecttolerance="10"
     gridtolerance="10"
     guidetolerance="10"
     inkscape:pageopacity="0"
     inkscape:pageshadow="2"
     inkscape:window-width="2560"
     inkscape:window-height="1373"
     id="namedview39"
     showgrid="false"
     fit-margin-top="0"
     fit-margin-left="0"
     fit-margin-right="0"
     fit-margin-bottom="0"
     inkscape:zoom="0.79285994"
     inkscape:cx="-334.72823"
     inkscape:cy="-141.34335"
     inkscape:window-x="1911"
     inkscape:window-y="-9"
     inkscape:window-maximized="1"
     inkscape:current-layer="Ebene_1" /><style
     type="text/css"
     id="style3">
	.st0{fill:#155D8F;}
	.st1{fill:#FFFFFF;}
	.st2{fill:none;stroke:#FFFFFF;stroke-miterlimit:10;}
</style><g
     id="g17"
     transform="translate(-158.56849,-280.21479)"
     style="fill:#155d8f;fill-opacity:1"><g
       id="g19"
       style="fill:#155d8f;fill-opacity:1"><path
         class="st1"
         d="m 335.5,417.2 c 0.1,10 -4,20 -11,27.3 -7,7.3 -17,11.8 -27.3,12 -5.1,0.1 -10.3,-0.8 -15.2,-2.6 -4.8,-1.9 -9.3,-4.7 -13.1,-8.4 -3.8,-3.7 -6.8,-8 -8.9,-12.9 -2,-4.9 -3.1,-10.1 -3.1,-15.4 0,-5.3 1.1,-10.5 3.1,-15.4 2,-4.9 5.1,-9.2 8.9,-12.9 3.8,-3.6 8.3,-6.5 13.1,-8.4 4.9,-1.9 10,-2.8 15.2,-2.6 10.3,0.2 20.3,4.7 27.3,12 7,7.3 11,17.2 11,27.3 z m 0,0 c 0,-5 -1,-10 -3,-14.6 -2,-4.6 -4.9,-8.8 -8.4,-12.3 -3.6,-3.5 -7.9,-6.1 -12.5,-7.9 -4.6,-1.8 -9.5,-2.6 -14.4,-2.5 -9.8,0.2 -19.2,4.5 -25.9,11.4 -6.7,6.9 -10.5,16.3 -10.4,25.9 -0.1,9.5 3.8,19 10.4,25.9 6.6,6.9 16.1,11.2 25.9,11.4 4.9,0.1 9.8,-0.7 14.4,-2.5 4.6,-1.8 8.9,-4.5 12.5,-7.9 3.6,-3.5 6.5,-7.6 8.4,-12.3 1.9,-4.6 3,-9.6 3,-14.6 z"
         id="path21"
         inkscape:connector-curvature="0"
         style="fill:#155d8f;fill-opacity:1" /></g><g
       id="g23"
       style="fill:#155d8f;fill-opacity:1"><path
         class="st1"
         d="m 346.7,281.5 c 9.7,-2.6 20.4,-1.2 29.2,3.7 8.8,4.9 15.7,13.4 18.5,23.3 1.4,4.9 1.9,10.2 1.3,15.4 -0.6,5.2 -2.2,10.2 -4.8,14.8 -2.6,4.5 -6.1,8.6 -10.2,11.9 -4.2,3.2 -9,5.6 -14.1,7 -5.1,1.3 -10.5,1.6 -15.7,0.9 -5.2,-0.7 -10.2,-2.6 -14.7,-5.3 -4.5,-2.7 -8.4,-6.4 -11.4,-10.5 -3,-4.2 -5.2,-9 -6.4,-14 -2.4,-10 -0.6,-20.8 4.7,-29.4 5.2,-8.9 13.9,-15.3 23.6,-17.8 z m 0,0 c -4.8,1.3 -9.4,3.6 -13.4,6.6 -4,3.1 -7.3,6.9 -9.7,11.3 -2.4,4.3 -4,9.2 -4.5,14.1 -0.5,4.9 -0.1,9.9 1.3,14.6 2.7,9.4 9.2,17.5 17.6,22.1 8.4,4.7 18.5,6 27.7,3.5 9.2,-2.4 17.4,-8.5 22.4,-16.7 5,-8.2 6.7,-18.4 4.5,-27.9 -1.1,-4.8 -3.2,-9.3 -6.1,-13.3 -2.9,-4 -6.6,-7.5 -10.9,-10 -4.3,-2.6 -9,-4.3 -14,-5 -5,-0.8 -10.1,-0.6 -14.9,0.7 z"
         id="path25"
         inkscape:connector-curvature="0"
         style="fill:#155d8f;fill-opacity:1" /></g><g
       id="g27"
       style="fill:#155d8f;fill-opacity:1"><path
         class="st1"
         d="m 202.8,361.3 c -2.4,-5.8 -2.4,-12.5 -0.1,-18.4 2.3,-5.9 6.9,-10.9 12.9,-13.6 3,-1.3 6.2,-2.1 9.5,-2.2 3.3,-0.1 6.7,0.5 9.8,1.7 3.1,1.2 6,3.1 8.4,5.5 2.4,2.4 4.3,5.2 5.6,8.4 1.3,3.1 1.9,6.5 1.8,9.9 -0.1,3.4 -0.9,6.7 -2.2,9.8 -1.4,3 -3.4,5.8 -5.8,8 -2.4,2.2 -5.3,3.9 -8.4,5 -6.1,2.2 -13,1.8 -18.7,-0.8 -5.9,-2.7 -10.5,-7.5 -12.8,-13.3 z m 0,0 c 1.2,2.9 2.9,5.5 5.2,7.7 2.2,2.2 4.9,3.9 7.8,5 2.9,1.1 6,1.6 9,1.5 3.1,-0.1 6,-0.8 8.8,-2.1 5.5,-2.5 9.7,-7.1 11.8,-12.5 2.1,-5.4 2,-11.5 -0.1,-16.8 -2.1,-5.3 -6.3,-9.8 -11.6,-12.2 -5.3,-2.5 -11.6,-2.8 -17.2,-0.8 -2.8,1 -5.5,2.6 -7.7,4.6 -2.2,2.1 -4.1,4.6 -5.4,7.4 -1.3,2.8 -2,5.9 -2.1,9 -0.3,3.1 0.3,6.3 1.5,9.2 z"
         id="path29"
         inkscape:connector-curvature="0"
         style="fill:#155d8f;fill-opacity:1" /></g><line
       class="st2"
       x1="323.29999"
       y1="383.60001"
       x2="335.5"
       y2="357.5"
       id="line31"
       style="fill:#155d8f;fill-opacity:1;stroke:#155d8f;stroke-miterlimit:10;stroke-opacity:1" /><line
       class="st2"
       x1="244.10001"
       y1="375.70001"
       x2="259.5"
       y2="391.20001"
       id="line33"
       style="fill:#155d8f;fill-opacity:1;stroke:#155d8f;stroke-miterlimit:10;stroke-opacity:1" /><line
       class="st2"
       x1="254.2"
       y1="344.89999"
       x2="312.70001"
       y2="327.60001"
       id="line35"
       style="fill:#155d8f;fill-opacity:1;stroke:#155d8f;stroke-miterlimit:10;stroke-opacity:1" /></g><g
     id="g4171"
     transform="translate(-158,-280.21479)"
     style="fill:#155d8f;fill-opacity:1"><path
       id="path7"
       d="m 158,533.5 0,-42.9 3.9,0 0,42.9 -3.9,0 z"
       class="st1"
       inkscape:connector-curvature="0"
       style="fill:#155d8f;fill-opacity:1" /><path
       id="path9"
       d="m 282.9,512 c 0,2.8 -0.3,5.2 -0.9,7.3 -0.6,2.1 -1.4,4 -2.4,5.6 -1,1.6 -2.3,2.9 -3.8,4 -1.5,1.1 -3.1,2 -5,2.7 -1.9,0.7 -3.8,1.2 -5.9,1.5 -2.1,0.3 -4.4,0.5 -6.7,0.5 l -22.2,0 0,-42.9 22.1,0 c 3.5,0 6.8,0.3 9.8,1 3,0.7 5.6,1.9 7.9,3.5 2.3,1.6 4,3.9 5.2,6.6 1.3,2.7 1.9,6.1 1.9,10.2 z m -4,0 c 0,-2.3 -0.2,-4.4 -0.7,-6.2 -0.5,-1.8 -1.1,-3.4 -2,-4.7 -0.9,-1.3 -1.9,-2.4 -3.1,-3.3 -1.2,-0.9 -2.6,-1.6 -4.2,-2.2 -1.6,-0.6 -3.2,-0.9 -5,-1.2 -1.8,-0.2 -3.7,-0.3 -5.8,-0.3 l -18.2,0 0,35.8 18.2,0 c 3.1,0 5.9,-0.3 8.4,-0.8 2.5,-0.5 4.7,-1.5 6.5,-2.9 1.8,-1.4 3.2,-3.2 4.3,-5.5 1.1,-2.3 1.6,-5.2 1.6,-8.7 z"
       class="st1"
       inkscape:connector-curvature="0"
       style="fill:#155d8f;fill-opacity:1" /><path
       id="path11"
       d="m 294.3,533.5 0,-42.9 35.8,0 0,3.7 -31.5,0 0,14.7 29.9,0 0,3.6 -29.9,0 0,17.3 32,0 0,3.7 -36.3,0 z"
       class="st1"
       inkscape:connector-curvature="0"
       style="fill:#155d8f;fill-opacity:1" /><path
       id="path13"
       d="m 342.6,533.5 0,-42.9 35.8,0 0,3.7 -31.5,0 0,14.7 29.9,0 0,3.6 -29.9,0 0,17.3 32,0 0,3.7 -36.3,0 z"
       class="st1"
       inkscape:connector-curvature="0"
       style="fill:#155d8f;fill-opacity:1" /><path
       id="path15"
       d="m 437.8,512 c 0,2.8 -0.3,5.2 -0.9,7.3 -0.6,2.1 -1.4,4 -2.4,5.6 -1,1.6 -2.3,2.9 -3.8,4 -1.5,1.1 -3.1,2 -5,2.7 -1.9,0.7 -3.8,1.2 -5.9,1.5 -2.1,0.3 -4.4,0.5 -6.7,0.5 l -22.2,0 0,-42.9 22.1,0 c 3.5,0 6.8,0.3 9.8,1 3,0.7 5.6,1.9 7.9,3.5 2.3,1.6 4,3.9 5.2,6.6 1.3,2.7 1.9,6.1 1.9,10.2 z m -4,0 c 0,-2.3 -0.2,-4.4 -0.7,-6.2 -0.5,-1.8 -1.1,-3.4 -2,-4.7 -0.9,-1.3 -1.9,-2.4 -3.1,-3.3 -1.2,-0.9 -2.6,-1.6 -4.2,-2.2 -1.6,-0.6 -3.2,-0.9 -5,-1.2 -1.8,-0.2 -3.7,-0.3 -5.8,-0.3 l -18.2,0 0,35.8 18.2,0 c 3.1,0 5.9,-0.3 8.4,-0.8 2.5,-0.5 4.7,-1.5 6.5,-2.9 1.8,-1.4 3.2,-3.2 4.3,-5.5 1.1,-2.3 1.6,-5.2 1.6,-8.7 z"
       class="st1"
       inkscape:connector-curvature="0"
       style="fill:#155d8f;fill-opacity:1" /><path
       id="path37"
       d="m 180.2,533.7 0,-17.3 c 1.2,-1 2.7,-2.1 4.4,-3.2 1.8,-1.1 3.7,-2.1 5.8,-3 2.1,-0.9 4.3,-1.7 6.6,-2.2 2.3,-0.6 4.7,-0.9 7.2,-0.9 2.1,0 4,0.2 5.7,0.5 1.7,0.4 3.1,1 4.3,1.9 1.2,0.9 2.1,2.1 2.7,3.6 0.6,1.5 1,3.5 1,5.9 l 0,14.7 3.9,0 0,-15.5 c 0,-2.2 -0.3,-4.3 -1.1,-6.1 -0.7,-1.8 -1.8,-3.4 -3.2,-4.7 -1.4,-1.3 -3.2,-2.3 -5.4,-3 -2.2,-0.7 -4.7,-1 -7.6,-1 -2.6,0 -5,0.3 -7.3,0.8 -2.3,0.5 -4.5,1.2 -6.5,2.1 -2,0.8 -3.9,1.8 -5.7,2.8 -1.8,1 -3.4,2 -4.8,2.9 l 0,-7.5 -3.9,0 0,29.3 3.9,0 z"
       class="st1"
       inkscape:connector-curvature="0"
       style="fill:#155d8f;fill-opacity:1" /></g></svg>