<svg viewBox="0 0 96 96" width="22" height="22" fill="#D5EADB" xmlns="http://www.w3.org/2000/svg" xmlns:xlink="http://www.w3.org/1999/xlink" id="Icons_Footprint" overflow="hidden"><ellipse cx="39.5" cy="9" rx="4.5" ry="5"/><ellipse cx="30.5" cy="11" rx="2.5" ry="3"/><ellipse cx="25" cy="14.5" rx="2" ry="2.5"/><ellipse cx="21.5" cy="19" rx="1.5" ry="2"/><ellipse cx="18.5" cy="23" rx="1.5" ry="2"/><path d="M34 17C28.2 17 18 25.5 18 32 18 41.2 22 42.1 22 49 22 55.9 18.1 69 31 69 45.8 69 37 51.2 37 47 37 35.8 43 32.5 43 24 43 18.4 39.8 17 34 17Z"/><ellipse cx="56.5" cy="32" rx="4.5" ry="5"/><ellipse cx="65.5" cy="34" rx="2.5" ry="3"/><ellipse cx="71" cy="37.5" rx="2" ry="2.5"/><ellipse cx="74.5" cy="42" rx="1.5" ry="2"/><ellipse cx="77.5" cy="46" rx="1.5" ry="2"/><path d="M62 40C56.2 40 53 41.4 53 47 53 55.5 59 58.8 59 70 59 74.2 50.2 92 65 92 77.9 92 74 78.9 74 72 74 65.1 78 64.2 78 55 78 48.5 67.8 40 62 40Z"/></svg>