<?xml version="1.0" encoding="UTF-8" standalone="no"?>
<svg
   xmlns:osb="http://www.openswatchbook.org/uri/2009/osb"
   xmlns:dc="http://purl.org/dc/elements/1.1/"
   xmlns:cc="http://creativecommons.org/ns#"
   xmlns:rdf="http://www.w3.org/1999/02/22-rdf-syntax-ns#"
   xmlns:svg="http://www.w3.org/2000/svg"
   xmlns="http://www.w3.org/2000/svg"
   xmlns:xlink="http://www.w3.org/1999/xlink"
   xmlns:sodipodi="http://sodipodi.sourceforge.net/DTD/sodipodi-0.dtd"
   xmlns:inkscape="http://www.inkscape.org/namespaces/inkscape"
   id="Capa_1"
   enable-background="new 0 0 504.495 504.495"
   height="700"
   viewBox="0 0 689.73926 689.73926"
   width="700"
   version="1.1"
   sodipodi:docname="bna.svg"
   inkscape:version="1.0.1 (3bc2e813f5, 2020-09-07)">
  <metadata
     id="metadata442">
    <rdf:RDF>
      <cc:Work
         rdf:about="">
        <dc:format>image/svg+xml</dc:format>
        <dc:type
           rdf:resource="http://purl.org/dc/dcmitype/StillImage" />
        <dc:title></dc:title>
      </cc:Work>
    </rdf:RDF>
  </metadata>
  <defs
     id="defs440">
    <linearGradient
       id="linearGradient3284"
       osb:paint="solid">
      <stop
         style="stop-color:#d5f6ff;stop-opacity:1;"
         offset="0"
         id="stop3282" />
    </linearGradient>
    <linearGradient
       inkscape:collect="always"
       id="linearGradient1310"
       osb:paint="gradient">
      <stop
         style="stop-color:#d5f6ff;stop-opacity:1;"
         offset="0"
         id="stop1306" />
      <stop
         style="stop-color:#d5f6ff;stop-opacity:0;"
         offset="1"
         id="stop1308" />
    </linearGradient>
    <linearGradient
       inkscape:collect="always"
       xlink:href="#linearGradient3284"
       id="linearGradient3286"
       x1="-97.659653"
       y1="273.11188"
       x2="592.07959"
       y2="273.11188"
       gradientUnits="userSpaceOnUse"
       gradientTransform="translate(97.659653,71.757732)" />
  </defs>
  <sodipodi:namedview
     pagecolor="#ffffff"
     bordercolor="#666666"
     borderopacity="1"
     objecttolerance="10"
     gridtolerance="10"
     guidetolerance="10"
     inkscape:pageopacity="0"
     inkscape:pageshadow="2"
     inkscape:window-width="1680"
     inkscape:window-height="987"
     id="namedview438"
     showgrid="false"
     inkscape:zoom="0.71777344"
     inkscape:cx="455.45595"
     inkscape:cy="278.8295"
     inkscape:window-x="1672"
     inkscape:window-y="-8"
     inkscape:window-maximized="1"
     inkscape:current-layer="Capa_1" />
  <circle
     style="fill:url(#linearGradient3286);fill-opacity:1;fill-rule:nonzero;stroke-width:0.985342;stroke-miterlimit:4;stroke-dasharray:none"
     id="path444"
     cx="344.86963"
     cy="344.86963"
     r="344.86963" />
  <g
     id="_x3C_Group_x3E__28_"
     transform="translate(98.630352,81.935782)">
    <g
       id="g288">
      <path
         d="m 299.869,300.555 c -1.919,0 -3.839,-0.732 -5.303,-2.197 l -95.243,-95.24 c -2.929,-2.929 -2.929,-7.677 0,-10.606 2.929,-2.929 7.678,-2.929 10.606,0 l 95.242,95.24 c 2.93,2.929 2.93,7.677 0.001,10.606 -1.464,1.464 -3.384,2.197 -5.303,2.197 z"
         fill="#5a86cc"
         id="path286" />
    </g>
    <g
       id="g292">
      <path
         d="m 204.626,300.555 c -1.919,0 -3.839,-0.732 -5.303,-2.197 -2.929,-2.929 -2.929,-7.678 0,-10.606 l 95.243,-95.24 c 2.929,-2.93 7.678,-2.929 10.606,0 2.929,2.929 2.929,7.678 -0.001,10.606 l -95.242,95.24 c -1.464,1.464 -3.384,2.197 -5.303,2.197 z"
         fill="#5a86cc"
         id="path290" />
    </g>
    <g
       fill="#4377c4"
       id="g302">
      <path
         d="m 305.167,298.356 c -1.46,1.47 -3.38,2.2 -5.3,2.2 -1.92,0 -3.84,-0.73 -5.3,-2.2 l -28.8,-28.8 10.6,-10.61 28.8,28.8 c 2.931,2.93 2.931,7.68 0,10.61 z"
         id="path294" />
      <path
         d="m 238.728,269.556 -28.8,28.8 c -1.46,1.47 -3.38,2.2 -5.3,2.2 -1.92,0 -3.84,-0.73 -5.3,-2.2 -2.93,-2.93 -2.93,-7.68 0,-10.61 l 28.8,-28.8 z"
         id="path296" />
      <path
         d="m 238.728,221.306 -10.6,10.61 -28.8,-28.8 c -2.93,-2.93 -2.93,-7.68 0,-10.61 2.92,-2.92 7.67,-2.92 10.6,0 z"
         id="path298" />
      <path
         d="m 305.167,203.116 -28.8,28.8 -10.6,-10.61 28.8,-28.8 c 2.93,-2.92 7.68,-2.92 10.6,0 2.931,2.93 2.931,7.68 0,10.61 z"
         id="path300" />
    </g>
    <g
       id="g306">
      <path
         d="m 163.721,480.987 c -1.795,0 -3.595,-0.64 -5.031,-1.94 -3.071,-2.78 -3.307,-7.522 -0.527,-10.593 L 294.309,318.055 c 2.779,-3.071 7.522,-3.308 10.594,-0.527 3.071,2.78 3.307,7.522 0.527,10.593 L 169.284,478.52 c -1.48,1.635 -3.518,2.467 -5.563,2.467 z"
         fill="#4377c4"
         id="path304" />
    </g>
    <g
       id="g310">
      <path
         d="m 340.771,480.979 c -2.045,0 -4.081,-0.831 -5.562,-2.466 L 199.065,328.121 c -2.78,-3.071 -2.544,-7.813 0.527,-10.593 3.071,-2.78 7.814,-2.544 10.593,0.527 l 136.143,150.391 c 2.78,3.071 2.545,7.813 -0.526,10.594 -1.435,1.298 -3.236,1.939 -5.031,1.939 z"
         fill="#4377c4"
         id="path308" />
    </g>
    <g
       id="g314">
      <path
         d="m 305.427,328.125 -18.99,20.98 -17.95,-2.52 25.82,-28.53 c 2.78,-3.07 7.52,-3.31 10.6,-0.53 3.071,2.78 3.301,7.52 0.52,10.6 z"
         fill="#3b68b0"
         id="path312" />
    </g>
    <g
       id="g318">
      <path
         d="m 236.018,346.585 -17.96,2.52 -18.99,-20.98 c -2.78,-3.08 -2.55,-7.82 0.52,-10.6 3.08,-2.78 7.82,-2.54 10.6,0.53 z"
         fill="#3b68b0"
         id="path316" />
    </g>
    <g
       id="g322">
      <path
         d="M 436.737,300.554 H 67.758 c -4.142,0 -7.5,-3.358 -7.5,-7.5 v -12.763 c 0,-12.328 7.157,-23.79 18.233,-29.201 l 122.841,-60.014 c 1.025,-0.501 2.151,-0.761 3.292,-0.761 h 95.244 c 1.141,0 2.267,0.26 3.292,0.761 l 122.841,60.012 c 11.077,5.412 18.234,16.874 18.234,29.202 v 12.765 c 0.002,4.141 -3.356,7.499 -7.498,7.499 z m -361.479,-15 h 353.979 v -5.265 c 0,-6.638 -3.854,-12.81 -9.818,-15.724 L 298.136,205.315 H 206.36 L 85.077,264.567 c -5.964,2.914 -9.818,9.086 -9.818,15.724 v 5.263 z"
         fill="#5a86cc"
         id="path320" />
    </g>
    <g
       id="g326">
      <path
         d="m 67.758,205.238 c -4.142,0 -7.5,-3.358 -7.5,-7.5 v -30 c 0,-4.142 3.358,-7.5 7.5,-7.5 4.142,0 7.5,3.358 7.5,7.5 v 30 c 0,4.142 -3.358,7.5 -7.5,7.5 z"
         fill="#5a86cc"
         id="path324" />
    </g>
    <g
       id="g330">
      <path
         d="m 436.74,205.239 c -4.143,0 -7.5,-3.358 -7.5,-7.5 V 167.74 c 0,-4.142 3.357,-7.5 7.5,-7.5 4.143,0 7.5,3.358 7.5,7.5 v 29.999 c 0,4.142 -3.358,7.5 -7.5,7.5 z"
         fill="#5a86cc"
         id="path328" />
    </g>
    <g
       id="g334">
      <path
         d="m 67.758,360.032 c -4.142,0 -7.5,-3.358 -7.5,-7.5 v -59.483 c 0,-4.142 3.358,-7.5 7.5,-7.5 4.142,0 7.5,3.358 7.5,7.5 v 59.483 c 0,4.142 -3.358,7.5 -7.5,7.5 z"
         fill="#5a86cc"
         id="path332" />
    </g>
    <g
       id="g338">
      <path
         d="m 436.74,357.734 c -4.143,0 -7.5,-3.358 -7.5,-7.5 v -57.186 c 0,-4.142 3.357,-7.5 7.5,-7.5 4.143,0 7.5,3.358 7.5,7.5 v 57.186 c 0,4.142 -3.358,7.5 -7.5,7.5 z"
         fill="#5a86cc"
         id="path336" />
    </g>
    <g
       id="g342">
      <path
         d="m 299.869,175.243 c -1.919,0 -3.839,-0.732 -5.303,-2.197 l -95.243,-95.24 c -2.929,-2.929 -2.929,-7.677 0,-10.606 2.929,-2.929 7.678,-2.929 10.606,0 l 95.242,95.24 c 2.93,2.929 2.93,7.677 0.001,10.606 -1.464,1.465 -3.384,2.197 -5.303,2.197 z"
         fill="#5a86cc"
         id="path340" />
    </g>
    <g
       id="g346">
      <path
         d="m 204.626,175.243 c -1.919,0 -3.839,-0.732 -5.303,-2.197 -2.929,-2.929 -2.929,-7.678 0,-10.606 L 294.566,67.2 c 2.929,-2.929 7.678,-2.929 10.606,0 2.928,2.929 2.929,7.678 -0.001,10.606 l -95.242,95.24 c -1.464,1.465 -3.384,2.197 -5.303,2.197 z"
         fill="#5a86cc"
         id="path344" />
    </g>
    <path
       d="m 373.462,480.981 c -2.774,0 -5.441,-1.546 -6.742,-4.206 L 295.19,330.587 h -85.884 l -71.53,146.188 c -1.82,3.722 -6.313,5.262 -10.033,3.44 -3.721,-1.82 -5.261,-6.313 -3.44,-10.033 L 197.889,319.79 c 1.259,-2.573 3.873,-4.204 6.737,-4.204 h 95.244 c 2.864,0 5.479,1.631 6.736,4.204 l 73.587,150.392 c 1.821,3.721 0.28,8.213 -3.44,10.033 -1.061,0.52 -2.184,0.766 -3.291,0.766 z"
       fill="#5a86cc"
       id="path348" />
    <g
       id="g352">
      <path
         d="m 339.76,45.027 c -4.141,0 -7.498,-3.355 -7.5,-7.497 L 332.251,17.498 C 332.25,16.121 331.129,15 329.752,15 l -155.003,0.003 c -1.378,0 -2.5,1.122 -2.5,2.5 v 20 c 0,4.142 -3.358,7.5 -7.5,7.5 -4.142,0 -7.5,-3.358 -7.5,-7.5 v -20 c 0,-9.648 7.85,-17.499 17.499,-17.5 L 329.751,0 c 9.646,-0.001 17.497,7.846 17.5,17.493 l 0.009,20.031 c 0.002,4.142 -3.354,7.501 -7.497,7.503 -10e-4,0 -0.002,0 -0.003,0 z"
         fill="#5a86cc"
         id="path350" />
    </g>
    <path
       d="m 305.167,173.045 c -1.46,1.47 -3.38,2.2 -5.3,2.2 -1.92,0 -3.84,-0.73 -5.3,-2.2 l -28.8,-28.8 10.6,-10.61 28.8,28.8 c 2.931,2.93 2.931,7.68 0,10.61 z"
       fill="#4377c4"
       id="path354" />
    <path
       d="m 238.728,144.245 -28.8,28.8 c -1.46,1.47 -3.38,2.2 -5.3,2.2 -1.92,0 -3.84,-0.73 -5.3,-2.2 -2.93,-2.93 -2.93,-7.68 0,-10.61 l 28.8,-28.8 z"
       fill="#4377c4"
       id="path356" />
    <path
       d="m 238.728,95.995 -10.6,10.61 -28.8,-28.8 c -2.93,-2.93 -2.93,-7.68 0,-10.61 2.92,-2.92 7.67,-2.92 10.6,0 z"
       fill="#4377c4"
       id="path358" />
    <path
       d="m 305.167,77.805 -28.8,28.8 -10.6,-10.61 28.8,-28.8 c 2.93,-2.92 7.68,-2.92 10.6,0 2.931,2.93 2.931,7.68 0,10.61 z"
       fill="#4377c4"
       id="path360" />
    <path
       d="M 426.002,125.773 305.555,66.933 276.674,4.359 c -1.735,-3.761 -6.191,-5.402 -9.952,-3.667 -3.762,1.736 -5.403,6.192 -3.667,9.953 L 288.143,65 h -71.79 L 241.44,10.646 c 1.736,-3.761 0.094,-8.217 -3.667,-9.953 -3.763,-1.735 -8.216,-0.095 -9.953,3.667 l -28.879,62.57 -79.729,38.952 -40.721,19.894 c -11.076,5.412 -18.233,16.874 -18.233,29.201 v 12.764 c 0,4.142 3.358,7.5 7.5,7.5 H 197.124 V 323.07 c 0,4.142 3.358,7.5 7.5,7.5 4.142,0 7.5,-3.358 7.5,-7.5 V 175.24 h 80.241 v 147.834 c 0,4.142 3.357,7.5 7.5,7.5 4.143,0 7.5,-3.358 7.5,-7.5 V 175.24 h 129.372 c 4.143,0 7.5,-3.358 7.5,-7.5 v -12.766 c 0,-12.327 -7.157,-23.789 -18.235,-29.201 z M 75.258,160.24 v -5.264 c 0,-6.638 3.854,-12.81 9.818,-15.724 L 197.123,84.511 v 75.729 z m 136.866,0 V 80 h 80.241 v 80.241 h -80.241 z m 217.113,0 H 307.365 V 84.51 l 112.054,54.74 c 5.964,2.914 9.818,9.086 9.818,15.724 z"
       fill="#5a86cc"
       id="path362" />
    <path
       d="m 490.748,504.49 h -477 c -5.523,0 -10,-4.477 -10,-10 v -11 c 0,-5.523 4.477,-10 10,-10 h 477 c 5.523,0 10,4.477 10,10 v 11 c 0,5.523 -4.478,10 -10,10 z"
       fill="#e1ebf0"
       id="path364" />
    <path
       d="m 500.748,488.495 v 6 c 0,5.52 -4.48,10 -10,10 h -477 c -5.52,0 -10,-4.48 -10,-10 v -11 c 0,-5.53 4.48,-10 10,-10 h 5 v 5 c 0,5.52 4.48,10 10,10 z"
       fill="#d2e4e7"
       id="path366" />
    <g
       id="g400">
      <g
         id="g370">
        <path
           d="m 82.758,205.239 h -30 c -4.142,0 -7.5,-3.358 -7.5,-7.5 0,-4.142 3.358,-7.5 7.5,-7.5 h 30 c 4.142,0 7.5,3.358 7.5,7.5 0,4.142 -3.358,7.5 -7.5,7.5 z"
           fill="#f5de46"
           id="path368" />
      </g>
      <g
         id="g374">
        <path
           d="m 451.74,205.239 h -30 c -4.143,0 -7.5,-3.358 -7.5,-7.5 0,-4.142 3.357,-7.5 7.5,-7.5 h 30 c 4.143,0 7.5,3.358 7.5,7.5 0,4.142 -3.358,7.5 -7.5,7.5 z"
           fill="#f5de46"
           id="path372" />
      </g>
      <g
         id="g378">
        <path
           d="m 354.76,45.027 h -30 c -4.143,0 -7.5,-3.358 -7.5,-7.5 0,-4.142 3.357,-7.5 7.5,-7.5 h 30 c 4.143,0 7.5,3.358 7.5,7.5 0,4.142 -3.357,7.5 -7.5,7.5 z"
           fill="#f5de46"
           id="path376" />
      </g>
      <g
         id="g382">
        <path
           d="m 179.75,45.003 h -30 c -4.142,0 -7.5,-3.358 -7.5,-7.5 0,-4.142 3.358,-7.5 7.5,-7.5 h 30 c 4.142,0 7.5,3.358 7.5,7.5 0,4.142 -3.358,7.5 -7.5,7.5 z"
           fill="#f5de46"
           id="path380" />
      </g>
      <g
         id="g386">
        <path
           d="m 82.758,330.547 h -30 c -4.142,0 -7.5,-3.358 -7.5,-7.5 0,-4.142 3.358,-7.5 7.5,-7.5 h 30 c 4.142,0 7.5,3.358 7.5,7.5 0,4.142 -3.358,7.5 -7.5,7.5 z"
           fill="#f5de46"
           id="path384" />
      </g>
      <g
         id="g390">
        <path
           d="m 451.74,330.547 h -30 c -4.143,0 -7.5,-3.358 -7.5,-7.5 0,-4.142 3.357,-7.5 7.5,-7.5 h 30 c 4.143,0 7.5,3.358 7.5,7.5 0,4.142 -3.358,7.5 -7.5,7.5 z"
           fill="#f5de46"
           id="path388" />
      </g>
      <g
         id="g394">
        <path
           d="m 82.758,360.546 h -30 c -4.142,0 -7.5,-3.358 -7.5,-7.5 0,-4.142 3.358,-7.5 7.5,-7.5 h 30 c 4.142,0 7.5,3.358 7.5,7.5 0,4.142 -3.358,7.5 -7.5,7.5 z"
           fill="#f5de46"
           id="path392" />
      </g>
      <g
         id="g398">
        <path
           d="m 451.74,360.546 h -30 c -4.143,0 -7.5,-3.358 -7.5,-7.5 0,-4.142 3.357,-7.5 7.5,-7.5 h 30 c 4.143,0 7.5,3.358 7.5,7.5 0,4.142 -3.358,7.5 -7.5,7.5 z"
           fill="#f5de46"
           id="path396" />
      </g>
    </g>
    <g
       id="g434">
      <g
         id="g404">
        <path
           d="m 72.758,205.235 h -20 c -4.14,0 -7.5,-3.35 -7.5,-7.5 0,-4.14 3.36,-7.5 7.5,-7.5 h 20 c -4.14,0 -7.5,3.36 -7.5,7.5 0,4.15 3.36,7.5 7.5,7.5 z"
           fill="#f3d332"
           id="path402" />
      </g>
      <g
         id="g408">
        <path
           d="m 441.738,205.235 h -20 c -4.14,0 -7.5,-3.35 -7.5,-7.5 0,-4.14 3.36,-7.5 7.5,-7.5 h 20 c -4.14,0 -7.5,3.36 -7.5,7.5 0,4.15 3.36,7.5 7.5,7.5 z"
           fill="#f3d332"
           id="path406" />
      </g>
      <g
         id="g412">
        <path
           d="m 344.758,45.025 h -20 c -4.14,0 -7.5,-3.36 -7.5,-7.5 0,-4.14 3.36,-7.5 7.5,-7.5 h 20 c -4.14,0 -7.5,3.36 -7.5,7.5 0,4.14 3.36,7.5 7.5,7.5 z"
           fill="#f3d332"
           id="path410" />
      </g>
      <g
         id="g416">
        <path
           d="m 169.748,45.005 h -20 c -4.14,0 -7.5,-3.36 -7.5,-7.5 0,-4.14 3.36,-7.5 7.5,-7.5 h 20 c -4.14,0 -7.5,3.36 -7.5,7.5 0,4.14 3.36,7.5 7.5,7.5 z"
           fill="#f3d332"
           id="path414" />
      </g>
      <g
         id="g420">
        <path
           d="m 72.758,330.545 h -20 c -4.14,0 -7.5,-3.36 -7.5,-7.5 0,-4.14 3.36,-7.5 7.5,-7.5 h 20 c -4.14,0 -7.5,3.36 -7.5,7.5 0,4.14 3.36,7.5 7.5,7.5 z"
           fill="#f3d332"
           id="path418" />
      </g>
      <g
         id="g424">
        <path
           d="m 441.738,330.545 h -20 c -4.14,0 -7.5,-3.36 -7.5,-7.5 0,-4.14 3.36,-7.5 7.5,-7.5 h 20 c -4.14,0 -7.5,3.36 -7.5,7.5 0,4.14 3.36,7.5 7.5,7.5 z"
           fill="#f3d332"
           id="path422" />
      </g>
      <g
         id="g428">
        <path
           d="m 72.758,360.545 h -20 c -4.14,0 -7.5,-3.36 -7.5,-7.5 0,-4.14 3.36,-7.5 7.5,-7.5 h 20 c -4.14,0 -7.5,3.36 -7.5,7.5 0,4.14 3.36,7.5 7.5,7.5 z"
           fill="#f3d332"
           id="path426" />
      </g>
      <g
         id="g432">
        <path
           d="m 441.738,360.545 h -20 c -4.14,0 -7.5,-3.36 -7.5,-7.5 0,-4.14 3.36,-7.5 7.5,-7.5 h 20 c -4.14,0 -7.5,3.36 -7.5,7.5 0,4.14 3.36,7.5 7.5,7.5 z"
           fill="#f3d332"
           id="path430" />
      </g>
    </g>
  </g>
</svg>
