<svg id="Layer_1" enable-background="new 0 0 512 512" height="512" viewBox="0 0 512 512" width="512" xmlns="http://www.w3.org/2000/svg"><g><g><path d="m437.02 74.98c-48.353-48.351-112.64-74.98-181.02-74.98l-21.333 256 21.333 256c68.38 0 132.667-26.629 181.02-74.98 48.351-48.352 74.98-112.64 74.98-181.02s-26.629-132.667-74.98-181.02z" fill="#fd93ef"/><path d="m74.98 74.98c-48.351 48.353-74.98 112.64-74.98 181.02s26.629 132.668 74.98 181.02c48.353 48.351 112.64 74.98 181.02 74.98v-512c-68.38 0-132.667 26.629-181.02 74.98z" fill="#ecb4f6"/></g><g><path d="m387.286 124.714c-35.068-35.068-81.693-54.381-131.286-54.381l-15.472 185.667 15.472 185.667c49.593 0 96.218-19.313 131.286-54.38 35.068-35.068 54.38-81.693 54.38-131.287.001-49.593-19.312-96.219-54.38-131.286z" fill="#fd7cb7"/><path d="m124.714 124.714c-35.068 35.067-54.381 81.693-54.381 131.286s19.313 96.219 54.381 131.287 81.693 54.38 131.286 54.38v-371.334c-49.593 0-96.218 19.313-131.286 54.381z" fill="#fd93ef"/></g><g><path d="m362.607 170.607-21.213-21.213-85.394 85.393-10.667 21.213 10.667 21.213 90.667 90.666 21.213-21.212-90.667-90.667z" fill="#f7f0eb"/><path d="m170.546 149.333-21.213 21.213 85.454 85.454-90.727 90.727 21.213 21.213 90.727-90.727v-42.426z" fill="#fffbf5"/></g></g></svg>