<?xml version="1.0" encoding="UTF-8" standalone="no"?>
<svg
   xmlns:osb="http://www.openswatchbook.org/uri/2009/osb"
   xmlns:dc="http://purl.org/dc/elements/1.1/"
   xmlns:cc="http://creativecommons.org/ns#"
   xmlns:rdf="http://www.w3.org/1999/02/22-rdf-syntax-ns#"
   xmlns:svg="http://www.w3.org/2000/svg"
   xmlns="http://www.w3.org/2000/svg"
   xmlns:sodipodi="http://sodipodi.sourceforge.net/DTD/sodipodi-0.dtd"
   xmlns:inkscape="http://www.inkscape.org/namespaces/inkscape"
   id="Capa_1"
   enable-background="new 0 0 504.495 504.495"
   height="700"
   viewBox="0 0 689.73926 689.73926"
   width="700"
   version="1.1"
   sodipodi:docname="evu.svg"
   inkscape:version="1.0.1 (3bc2e813f5, 2020-09-07)">
  <metadata
     id="metadata442">
    <rdf:RDF>
      <cc:Work
         rdf:about="">
        <dc:format>image/svg+xml</dc:format>
        <dc:type
           rdf:resource="http://purl.org/dc/dcmitype/StillImage" />
        <dc:title></dc:title>
      </cc:Work>
    </rdf:RDF>
  </metadata>
  <defs
     id="defs440">
    <linearGradient
       id="linearGradient3284"
       osb:paint="solid">
      <stop
         style="stop-color:#d5f6ff;stop-opacity:1;"
         offset="0"
         id="stop3282" />
    </linearGradient>
    <linearGradient
       inkscape:collect="always"
       id="linearGradient1310"
       osb:paint="gradient">
      <stop
         style="stop-color:#d5f6ff;stop-opacity:1;"
         offset="0"
         id="stop1306" />
      <stop
         style="stop-color:#d5f6ff;stop-opacity:0;"
         offset="1"
         id="stop1308" />
    </linearGradient>
  </defs>
  <sodipodi:namedview
     pagecolor="#ffffff"
     bordercolor="#666666"
     borderopacity="1"
     objecttolerance="10"
     gridtolerance="10"
     guidetolerance="10"
     inkscape:pageopacity="0"
     inkscape:pageshadow="2"
     inkscape:window-width="1680"
     inkscape:window-height="987"
     id="namedview438"
     showgrid="false"
     inkscape:zoom="0.71777344"
     inkscape:cx="455.45595"
     inkscape:cy="278.8295"
     inkscape:window-x="1672"
     inkscape:window-y="-8"
     inkscape:window-maximized="1"
     inkscape:current-layer="Capa_1" />
  <circle
     style="fill:#ffeeaa;fill-opacity:1;fill-rule:nonzero;stroke-width:0.985342;stroke-miterlimit:4;stroke-dasharray:none"
     id="path444"
     cx="344.86963"
     cy="344.86963"
     r="344.86963" />
  <g
     id="g3543"
     transform="matrix(0.9853418,0,0,0.9853418,84.0825,49.763112)">
    <g
       id="g3525">
      <g
         id="g3423">
        <path
           d="m 425.1,221.921 c -4.267,0 -7.726,-3.459 -7.726,-7.726 0,-8.103 -6.578,-14.695 -14.664,-14.695 h -24.726 c -4.267,0 -7.726,-3.459 -7.726,-7.726 0,-4.267 3.459,-7.726 7.726,-7.726 h 24.726 c 16.607,0 30.117,13.524 30.117,30.147 -10e-4,4.267 -3.46,7.726 -7.727,7.726 z"
           fill="#2b4d66"
           id="path3421" />
      </g>
      <g
         id="g3427">
        <path
           d="m 425.1,336.507 c -4.267,0 -7.726,-3.459 -7.726,-7.726 v -224.18 c 0,-8.103 -6.578,-14.694 -14.664,-14.694 h -24.726 c -4.267,0 -7.726,-3.459 -7.726,-7.726 0,-4.267 3.459,-7.726 7.726,-7.726 h 24.726 c 16.607,0 30.117,13.524 30.117,30.147 V 328.78 c -10e-4,4.267 -3.46,7.727 -7.727,7.727 z"
           fill="#375e7d"
           id="path3425" />
      </g>
      <g
         id="g3431">
        <path
           clip-rule="evenodd"
           d="m 243.491,54.797 63.553,16.991 70.939,-16.991 V 13.633 C 377.983,6.131 371.823,0 364.32,0 H 257.124 c -7.503,0 -13.633,6.131 -13.633,13.633 z"
           fill="#375e7d"
           fill-rule="evenodd"
           id="path3429" />
      </g>
      <g
         id="g3435">
        <path
           clip-rule="evenodd"
           d="m 315.306,128.131 62.677,-18.538 V 82.18 54.797 h -61.685 -72.807 v 35.879 z"
           fill="#ffd772"
           fill-rule="evenodd"
           id="path3433" />
      </g>
      <g
         id="g3439">
        <path
           clip-rule="evenodd"
           d="m 293.06,164.39 37.776,27.384 47.147,-27.384 V 109.593 H 315.306 L 280.8,128.481 c 0.379,12.437 3.211,33.311 12.26,35.909 z"
           fill="#f9f7f8"
           fill-rule="evenodd"
           id="path3437" />
      </g>
      <g
         id="g3443">
        <path
           clip-rule="evenodd"
           d="m 297.147,219.187 40.461,11.327 40.374,-11.327 V 191.774 164.39 H 293.06 c -16.464,12.845 -8.699,33.368 4.087,54.797 z"
           fill="#ffd772"
           fill-rule="evenodd"
           id="path3441" />
      </g>
      <g
         id="g3447">
        <path
           clip-rule="evenodd"
           d="m 304.417,273.983 41.396,11.386 32.171,-11.386 v -54.797 h -80.835 c -8.613,19.123 -9.869,37.223 7.268,54.797 z"
           fill="#f9f7f8"
           fill-rule="evenodd"
           id="path3445" />
      </g>
      <g
         id="g3451">
        <path
           clip-rule="evenodd"
           d="m 315.831,328.78 22.625,16.232 39.527,-16.232 v -54.797 h -73.566 c -16.319,22.801 -12.729,40.901 11.414,54.797 z"
           fill="#ffd772"
           fill-rule="evenodd"
           id="path3449" />
      </g>
      <g
         id="g3455">
        <path
           clip-rule="evenodd"
           d="m 367.503,511.854 h 138.929 c 3.036,0 5.488,-2.481 5.488,-5.488 V 334.239 c 0,-3.007 -2.452,-5.459 -5.488,-5.459 H 425.1 377.983 315.831 l -31.82,121.358 z"
           fill="#f9f7f8"
           fill-rule="evenodd"
           id="path3453" />
      </g>
      <g
         id="g3459">
        <path
           clip-rule="evenodd"
           d="M 18.968,474.223 H 170.1 309.058 365.021 c -6.977,-17.283 -13.312,-33.631 -19.121,-49.425 -6.977,-18.947 -13.166,-37.076 -18.625,-54.826 -4.233,-13.867 -8.057,-27.501 -11.444,-41.192 -4.496,-18.013 -8.262,-36.113 -11.414,-54.797 -2.949,-17.575 -5.342,-35.675 -7.269,-54.797 -1.752,-17.312 -3.094,-35.47 -4.087,-54.797 -0.613,-11.532 -1.08,-23.472 -1.46,-35.908 H 243.491 92.359 C 88.184,271.706 69.18,349.595 18.968,474.223 Z"
           fill="#4fc9af"
           fill-rule="evenodd"
           id="path3457" />
      </g>
      <g
         id="g3463">
        <path
           clip-rule="evenodd"
           d="m 187.324,303.527 -14.772,60.694 c -2.861,11.853 3.562,8.495 10.072,-0.029 l 60.867,-79.465 8.203,-10.743 0.088,-0.088 c 6.481,-8.466 7.736,-12.407 -3.678,-12.407 h -4.613 -40.315 c -7.94,0 -8.904,-1.314 -7.123,-8.641 l 15.239,-62.562 c 4.145,-17.02 -3.562,-8.495 -10.072,0 l -69.158,90.325 c -6.481,8.466 -7.327,12.407 3.678,12.407 h 42.972 c 8.232,0 10.509,2.744 8.612,10.509 z"
           fill="#ffd772"
           fill-rule="evenodd"
           id="path3461" />
      </g>
      <g
         id="g3467">
        <path
           clip-rule="evenodd"
           d="M 243.491,128.482 H 92.359 c -0.292,10.451 -0.671,20.523 -1.139,30.303 h 151.044 c 12.319,0 15.852,0.321 16.64,13.575 0.934,16.378 2.131,31.909 3.649,46.827 9.225,91.96 34.068,171.163 67.874,255.037 h 34.594 c -6.977,-17.283 -13.312,-33.631 -19.121,-49.425 -6.977,-18.947 -13.166,-37.076 -18.625,-54.826 -4.233,-13.867 -8.057,-27.501 -11.444,-41.192 -4.496,-18.013 -8.262,-36.113 -11.414,-54.797 -2.949,-17.575 -5.342,-35.675 -7.269,-54.797 -1.752,-17.312 -3.094,-35.47 -4.087,-54.797 -0.613,-11.532 -1.08,-23.472 -1.46,-35.908 -16.027,0 -32.083,0 -48.11,0 z"
           fill="#26bb9e"
           fill-rule="evenodd"
           id="path3465" />
      </g>
      <g
         id="g3471">
        <path
           clip-rule="evenodd"
           d="m 345.9,424.798 h 119.662 c 2.832,0 5.167,-2.306 5.167,-5.138 v -44.55 c 0,-2.832 -2.335,-5.138 -5.167,-5.138 H 327.275 c 5.459,17.75 11.648,35.88 18.625,54.826 z"
           fill="#b1e4f9"
           fill-rule="evenodd"
           id="path3469" />
      </g>
      <g
         id="g3475">
        <path
           clip-rule="evenodd"
           d="m 352.351,54.797 h 25.631 V 13.633 C 377.983,6.131 371.823,0 364.32,0 h -25.631 c 7.532,0 13.662,6.131 13.662,13.633 z"
           fill="#2b4d66"
           fill-rule="evenodd"
           id="path3473" />
      </g>
      <g
         id="g3479">
        <path
           clip-rule="evenodd"
           d="m 352.351,109.593 h 25.631 V 82.18 54.797 h -25.631 z"
           fill="#fbba58"
           fill-rule="evenodd"
           id="path3477" />
      </g>
      <g
         id="g3483">
        <path
           clip-rule="evenodd"
           d="m 352.351,164.39 h 25.632 v -54.797 h -25.632 v 7.562 z"
           fill="#e5e4ec"
           fill-rule="evenodd"
           id="path3481" />
      </g>
      <g
         id="g3487">
        <path
           clip-rule="evenodd"
           d="m 352.351,219.187 h 25.631 V 191.774 164.39 h -25.631 z"
           fill="#fbba58"
           fill-rule="evenodd"
           id="path3485" />
      </g>
      <g
         id="g3491">
        <path
           clip-rule="evenodd"
           d="m 352.351,273.983 h 25.632 v -54.796 h -25.632 v 7.181 z"
           fill="#e5e4ec"
           fill-rule="evenodd"
           id="path3489" />
      </g>
      <g
         id="g3495">
        <path
           clip-rule="evenodd"
           d="m 352.351,273.983 h 25.631 v 54.797 h -25.631 z"
           fill="#fbba58"
           fill-rule="evenodd"
           id="path3493" />
      </g>
      <g
         id="g3499">
        <path
           clip-rule="evenodd"
           d="m 450.848,511.854 h 55.583 c 3.036,0 5.488,-2.481 5.488,-5.488 V 334.239 c 0,-3.007 -2.452,-5.459 -5.488,-5.459 h -55.583 c 3.007,0 5.459,2.452 5.459,5.459 v 35.733 h 9.254 c 2.832,0 5.167,2.306 5.167,5.138 v 44.55 c 0,2.832 -2.335,5.138 -5.167,5.138 h -9.254 v 81.567 c 0,3.008 -2.452,5.489 -5.459,5.489 z"
           fill="#e5e4ec"
           fill-rule="evenodd"
           id="path3497" />
      </g>
      <g
         id="g3503">
        <path
           clip-rule="evenodd"
           d="m 333.434,389.269 h 112.043 c 2.832,0 5.167,2.336 5.167,5.167 v 30.362 h 5.663 9.254 c 2.832,0 5.167,-2.306 5.167,-5.138 v -44.55 c 0,-2.832 -2.335,-5.138 -5.167,-5.138 h -9.254 -129.032 c 1.985,6.394 4.028,12.816 6.159,19.297 z"
           fill="#75cef8"
           fill-rule="evenodd"
           id="path3501" />
      </g>
      <g
         id="g3507">
        <path
           d="m 89.586,446.07 c -4.267,0 -7.726,-3.459 -7.726,-7.726 v -23.18 c 0,-4.267 3.459,-7.726 7.726,-7.726 4.267,0 7.726,3.459 7.726,7.726 v 23.18 c 0,4.267 -3.459,7.726 -7.726,7.726 z"
           fill="#375e7d"
           id="path3505" />
      </g>
      <g
         id="g3511">
        <path
           d="m 140.79,446.07 c -4.267,0 -7.726,-3.459 -7.726,-7.726 v -23.18 c 0,-4.267 3.459,-7.726 7.726,-7.726 4.267,0 7.726,3.459 7.726,7.726 v 23.18 c 0,4.267 -3.459,7.726 -7.726,7.726 z"
           fill="#375e7d"
           id="path3509" />
      </g>
      <g
         id="g3515">
        <path
           d="m 191.994,446.07 c -4.267,0 -7.726,-3.459 -7.726,-7.726 v -23.18 c 0,-4.267 3.459,-7.726 7.726,-7.726 4.267,0 7.726,3.459 7.726,7.726 v 23.18 c 0.001,4.267 -3.458,7.726 -7.726,7.726 z"
           fill="#375e7d"
           id="path3513" />
      </g>
      <g
         id="g3519">
        <path
           d="m 243.199,446.07 c -4.267,0 -7.726,-3.459 -7.726,-7.726 v -23.18 c 0,-4.267 3.459,-7.726 7.726,-7.726 4.267,0 7.726,3.459 7.726,7.726 v 23.18 c 0,4.267 -3.459,7.726 -7.726,7.726 z"
           fill="#375e7d"
           id="path3517" />
      </g>
      <g
         id="g3523">
        <path
           d="m 294.403,446.07 c -4.267,0 -7.726,-3.459 -7.726,-7.726 v -23.18 c 0,-4.267 3.459,-7.726 7.726,-7.726 4.267,0 7.726,3.459 7.726,7.726 v 23.18 c 10e-4,4.267 -3.458,7.726 -7.726,7.726 z"
           fill="#375e7d"
           id="path3521" />
      </g>
    </g>
    <g
       id="g3529">
      <path
         clip-rule="evenodd"
         d="m 18.968,512 h 346.053 c 0.847,0 1.664,-0.058 2.481,-0.146 9.225,-1.255 16.406,-9.196 16.406,-18.742 0,-10.393 -8.495,-18.888 -18.888,-18.888 H 309.057 170.1 18.968 c -10.247,0 -18.683,8.262 -18.888,18.48 v 0.817 c 0.204,9.371 7.298,17.108 16.377,18.334 0.847,0.087 1.664,0.145 2.511,0.145 z"
         fill="#375e7d"
         fill-rule="evenodd"
         id="path3527" />
    </g>
    <g
       id="g3533">
      <path
         clip-rule="evenodd"
         d="m 330.457,512 h 34.564 c 0.847,0 1.664,-0.058 2.481,-0.146 9.225,-1.255 16.406,-9.196 16.406,-18.742 0,-10.393 -8.495,-18.888 -18.888,-18.888 h -34.594 c 10.393,0 18.888,8.495 18.888,18.888 0,9.546 -7.181,17.487 -16.406,18.742 -0.671,0.117 -1.751,0.146 -2.451,0.146 z"
         fill="#2b4d66"
         fill-rule="evenodd"
         id="path3531" />
    </g>
    <g
       id="g3537">
      <path
         clip-rule="evenodd"
         d="m 92.359,128.482 h 151.132 48.11 4.788 c 10.393,0 18.917,-8.495 18.917,-18.888 0,-10.393 -8.524,-18.918 -18.917,-18.918 H 243.491 87.571 c -10.393,0 -18.888,8.525 -18.888,18.918 0,10.393 8.495,18.888 18.888,18.888 z"
         fill="#375e7d"
         fill-rule="evenodd"
         id="path3535" />
    </g>
    <g
       id="g3541">
      <path
         clip-rule="evenodd"
         d="m 296.388,90.676 h -34.594 c 10.393,0 18.917,8.525 18.917,18.918 0,10.364 -8.466,18.83 -18.8,18.888 h 29.689 4.788 c 10.393,0 18.917,-8.495 18.917,-18.888 10e-4,-10.394 -8.524,-18.918 -18.917,-18.918 z"
         fill="#2b4d66"
         fill-rule="evenodd"
         id="path3539" />
    </g>
  </g>
</svg>
