<?xml version="1.0" encoding="UTF-8" standalone="no"?>
<svg
   xmlns:osb="http://www.openswatchbook.org/uri/2009/osb"
   xmlns:dc="http://purl.org/dc/elements/1.1/"
   xmlns:cc="http://creativecommons.org/ns#"
   xmlns:rdf="http://www.w3.org/1999/02/22-rdf-syntax-ns#"
   xmlns:svg="http://www.w3.org/2000/svg"
   xmlns="http://www.w3.org/2000/svg"
   xmlns:sodipodi="http://sodipodi.sourceforge.net/DTD/sodipodi-0.dtd"
   xmlns:inkscape="http://www.inkscape.org/namespaces/inkscape"
   id="Capa_1"
   enable-background="new 0 0 504.495 504.495"
   height="697.49493"
   viewBox="0 0 685.85731 687.27091"
   width="696.0603"
   version="1.1"
   sodipodi:docname="plant.svg"
   inkscape:version="1.0.1 (3bc2e813f5, 2020-09-07)">
  <metadata
     id="metadata442">
    <rdf:RDF>
      <cc:Work
         rdf:about="">
        <dc:format>image/svg+xml</dc:format>
        <dc:type
           rdf:resource="http://purl.org/dc/dcmitype/StillImage" />
        <dc:title></dc:title>
      </cc:Work>
    </rdf:RDF>
  </metadata>
  <defs
     id="defs440">
    <linearGradient
       id="linearGradient3284"
       osb:paint="solid">
      <stop
         style="stop-color:#d5f6ff;stop-opacity:1;"
         offset="0"
         id="stop3282" />
    </linearGradient>
    <linearGradient
       inkscape:collect="always"
       id="linearGradient1310"
       osb:paint="gradient">
      <stop
         style="stop-color:#d5f6ff;stop-opacity:1;"
         offset="0"
         id="stop1306" />
      <stop
         style="stop-color:#d5f6ff;stop-opacity:0;"
         offset="1"
         id="stop1308" />
    </linearGradient>
  </defs>
  <sodipodi:namedview
     pagecolor="#ffffff"
     bordercolor="#666666"
     borderopacity="1"
     objecttolerance="10"
     gridtolerance="10"
     guidetolerance="10"
     inkscape:pageopacity="0"
     inkscape:pageshadow="2"
     inkscape:window-width="1680"
     inkscape:window-height="987"
     id="namedview438"
     showgrid="false"
     inkscape:zoom="1.0150849"
     inkscape:cx="447.83752"
     inkscape:cy="240.41452"
     inkscape:window-x="1672"
     inkscape:window-y="-8"
     inkscape:window-maximized="1"
     inkscape:current-layer="Capa_1" />
  <path
     style="fill:#b3b3b3;fill-opacity:1;fill-rule:nonzero;stroke:none;stroke-width:0.985341;stroke-miterlimit:4;stroke-dasharray:none"
     d="M 307.55686,685.53283 C 213.03533,676.00417 123.78446,625.1396 66.713895,548.27512 34.669974,505.11732 13.758751,456.77737 3.3566883,401.81388 0.77727131,388.1845 -0.02771769,373.87146 7.2330886e-4,342.14352 0.03456331,304.39545 0.53339131,298.07172 5.2164735,276.0227 32.337624,148.3301 124.28822,48.504272 247.43517,13.058866 305.61286,-3.6864309 373.53962,-4.3608714 431.77682,11.228549 c 59.52674,15.934617 113.02201,47.536256 156.41146,92.398031 28.84792,29.82684 44.27023,51.37911 61.79117,86.35157 22.45594,44.82291 33.65652,88.80489 35.53994,139.55663 1.70931,46.06045 -2.94319,79.71881 -16.77072,121.32702 -17.38178,52.30324 -43.49636,95.18147 -81.27742,133.45152 -73.63347,74.58654 -176.19875,111.67505 -279.91439,101.21951 z"
     id="path3664" />
  <g
     id="g3974"
     transform="matrix(0.9853418,0,0,0.9853418,86.955151,111.23543)">
    <g
       id="g3884">
      <path
         d="m 466.357,104.681 c -4.268,0 -7.726,-3.459 -7.726,-7.726 V 76.893 c 0,-6.786 -5.52,-12.307 -12.306,-12.307 H 65.675 c -6.802,0 -12.335,5.521 -12.335,12.307 v 20.062 c 0,4.267 -3.459,7.726 -7.726,7.726 -4.267,0 -7.726,-3.459 -7.726,-7.726 V 76.893 c 0,-15.307 12.466,-27.76 27.788,-27.76 h 380.65 c 15.306,0 27.759,12.453 27.759,27.76 v 20.062 c -0.002,4.267 -3.46,7.726 -7.728,7.726 z"
         fill="#375e7d"
         id="path3882" />
    </g>
    <g
       id="g3888">
      <path
         clip-rule="evenodd"
         d="m 368.472,462.867 h 80.014 c 12.411,0 22.573,-10.163 22.573,-22.574 v -22.574 l -58.404,-16.237 -66.756,16.237 v 22.574 c 0,12.411 10.162,22.574 22.573,22.574 z"
         fill="#375e7d"
         fill-rule="evenodd"
         id="path3886" />
    </g>
    <g
       id="g3892">
      <path
         clip-rule="evenodd"
         d="m 63.485,462.867 h 80.014 c 12.44,0 22.573,-10.163 22.573,-22.574 v -22.574 l -57.849,-10.834 -67.311,10.834 v 22.574 c 0,12.411 10.162,22.574 22.573,22.574 z"
         fill="#375e7d"
         fill-rule="evenodd"
         id="path3890" />
    </g>
    <g
       id="g3896">
      <path
         clip-rule="evenodd"
         d="m 40.912,417.719 h 125.16 179.826 125.16 28.326 c 6.921,0 12.615,-5.695 12.615,-12.616 V 109.541 c 0,-6.921 -5.694,-12.586 -12.615,-12.586 H 466.356 45.614 12.586 C 5.665,96.955 0,102.62 0,109.541 v 295.562 c 0,6.921 5.665,12.616 12.586,12.616 z"
         fill="#f9f7f8"
         fill-rule="evenodd"
         id="path3894" />
    </g>
    <g
       id="g3900">
      <path
         d="M 363.011,371.362 H 251.722 c -4.268,0 -7.726,-3.459 -7.726,-7.726 0,-4.267 3.459,-7.726 7.726,-7.726 h 111.289 c 4.268,0 7.726,3.459 7.726,7.726 0,4.266 -3.458,7.726 -7.726,7.726 z m 0,-36.183 H 251.722 c -4.268,0 -7.726,-3.459 -7.726,-7.726 0,-4.267 3.459,-7.726 7.726,-7.726 h 111.289 c 4.268,0 7.726,3.459 7.726,7.726 0,4.267 -3.458,7.726 -7.726,7.726 z"
         fill="#2b4d66"
         id="path3898" />
    </g>
    <g
       id="g3904">
      <path
         d="M 363.011,298.968 H 251.722 c -4.268,0 -7.726,-3.459 -7.726,-7.726 0,-4.267 3.459,-7.726 7.726,-7.726 h 111.289 c 4.268,0 7.726,3.459 7.726,7.726 0,4.266 -3.458,7.726 -7.726,7.726 z"
         fill="#2b4d66"
         id="path3902" />
    </g>
    <g
       id="g3908">
      <path
         clip-rule="evenodd"
         d="m 446.5,278.392 h 19.799 c 2.453,0 4.497,2.015 4.497,4.468 v 44.593 44.564 c 0,2.453 -2.044,4.497 -4.497,4.497 H 446.5 v 28.59 c 0,6.921 -5.694,12.616 -12.615,12.616 h 37.174 28.326 c 6.921,0 12.615,-5.695 12.615,-12.616 V 109.541 c 0,-6.921 -5.694,-12.586 -12.615,-12.586 h -33.028 -32.473 c 6.921,0 12.615,5.665 12.615,12.586 v 28.677 c 10.688,0.759 19.098,9.666 19.098,20.53 0,10.893 -8.41,19.8 -19.098,20.559 v 99.085 z"
         fill="#e5e4ec"
         fill-rule="evenodd"
         id="path3906" />
    </g>
    <g
       id="g3912">
      <path
         clip-rule="evenodd"
         d="m 204.738,286.195 v 82.497 c 0,4.286 -3.533,7.819 -7.829,7.819 H 49.026 c -4.317,0 -7.819,-3.533 -7.819,-7.819 v -82.497 c 0,-4.296 3.503,-7.799 7.819,-7.799 h 147.882 c 4.297,0 7.83,3.503 7.83,7.799 z"
         fill="#a1d4ff"
         fill-rule="evenodd"
         id="path3910" />
    </g>
    <g
       id="g3916">
      <path
         clip-rule="evenodd"
         d="m 204.738,145.956 v 82.497 c 0,4.296 -3.533,7.829 -7.829,7.829 H 49.026 c -4.317,0 -7.819,-3.534 -7.819,-7.829 v -82.497 c 0,-4.296 3.503,-7.798 7.819,-7.798 h 147.882 c 4.297,-10e-4 7.83,3.502 7.83,7.798 z"
         fill="#a1d4ff"
         fill-rule="evenodd"
         id="path3914" />
    </g>
    <g
       id="g3920">
      <path
         clip-rule="evenodd"
         d="m 470.793,282.857 v 44.596 h -60.791 v -44.596 c 0,-2.452 2.009,-4.461 4.492,-4.461 h 51.808 c 2.451,0 4.491,2.009 4.491,4.461 z"
         fill="#f37c7c"
         fill-rule="evenodd"
         id="path3918" />
    </g>
    <g
       id="g3924">
      <path
         clip-rule="evenodd"
         d="m 470.793,327.453 v 44.566 c 0,2.452 -2.04,4.492 -4.491,4.492 h -51.808 c -2.483,0 -4.492,-2.04 -4.492,-4.492 v -44.566 z"
         fill="#f37c7c"
         fill-rule="evenodd"
         id="path3922" />
    </g>
    <g
       id="g3928">
      <path
         clip-rule="evenodd"
         d="m 41.204,160.559 h 131.76 c 4.293,0 7.826,3.504 7.826,7.826 v 67.897 h 16.12 c 4.293,0 7.826,-3.534 7.826,-7.826 v -82.498 c 0,-4.293 -3.533,-7.797 -7.826,-7.797 H 49.03 c -4.322,0 -7.826,3.504 -7.826,7.797 z"
         fill="#75cef8"
         fill-rule="evenodd"
         id="path3926" />
    </g>
    <g
       id="g3932">
      <path
         clip-rule="evenodd"
         d="m 180.79,308.617 v 67.897 h 16.12 c 4.293,0 7.826,-3.534 7.826,-7.826 V 286.19 c 0,-4.293 -3.533,-7.797 -7.826,-7.797 H 49.03 c -4.322,0 -7.826,3.504 -7.826,7.797 v 14.601 h 131.76 c 4.293,0 7.826,3.504 7.826,7.826 z"
         fill="#75cef8"
         fill-rule="evenodd"
         id="path3930" />
    </g>
    <g
       id="g3936">
      <path
         clip-rule="evenodd"
         d="m 138.272,434.569 v 22.574 c 0,1.957 -0.263,3.884 -0.73,5.724 h 5.957 c 12.44,0 22.573,-10.163 22.573,-22.574 V 417.719 H 40.912 v 16.85 z"
         fill="#2b4d66"
         fill-rule="evenodd"
         id="path3934" />
    </g>
    <g
       id="g3940">
      <path
         clip-rule="evenodd"
         d="m 443.258,434.569 v 22.574 c 0,1.957 -0.263,3.884 -0.759,5.724 h 5.986 c 12.411,0 22.573,-10.163 22.573,-22.574 v -22.574 h -125.16 v 16.85 z"
         fill="#2b4d66"
         fill-rule="evenodd"
         id="path3938" />
    </g>
    <g
       id="g3944">
      <path
         d="m 132.007,376.51 h -18.09 L 99.721,353.197 c -2.215,-3.647 -1.061,-8.396 2.586,-10.621 3.647,-2.215 8.396,-1.061 10.621,2.586 z"
         fill="#f37c7c"
         id="path3942" />
    </g>
    <g
       id="g3948">
      <path
         d="m 410.002,319.727 h 60.791 v 15.453 h -60.791 z"
         fill="#e6646e"
         id="path3946" />
    </g>
    <g
       id="g3952">
      <path
         d="m 171.266,336.961 c -1.661,0 -3.333,-0.533 -4.743,-1.632 -23.616,-18.4 -63.517,-18.4 -87.133,0 -3.364,2.624 -8.22,2.022 -10.843,-1.346 -2.623,-3.366 -2.02,-8.221 1.346,-10.843 29.258,-22.797 76.867,-22.798 106.127,0 3.366,2.623 3.969,7.477 1.346,10.844 -1.524,1.954 -3.801,2.977 -6.1,2.977 z"
         fill="#375e7d"
         id="path3950" />
    </g>
    <g
       id="g3956">
      <path
         d="m 146.193,212.959 -14.134,23.323 H 114 l 18.986,-31.348 c 2.215,-3.647 6.964,-4.801 10.611,-2.586 3.647,2.215 4.811,6.964 2.596,10.611 z"
         fill="#f37c7c"
         id="path3954" />
    </g>
    <g
       id="g3960">
      <path
         d="m 74.646,196.729 c -2.3,0 -4.576,-1.023 -6.1,-2.978 -2.623,-3.366 -2.02,-8.221 1.346,-10.844 29.258,-22.797 76.867,-22.797 106.127,-0.001 3.366,2.623 3.969,7.477 1.346,10.844 -2.622,3.367 -7.478,3.969 -10.843,1.347 -23.616,-18.4 -63.517,-18.4 -87.133,-0.001 -1.41,1.101 -3.083,1.633 -4.743,1.633 z"
         fill="#375e7d"
         id="path3958" />
    </g>
    <g
       id="g3964">
      <path
         clip-rule="evenodd"
         d="m 259.577,158.748 c 0,11.389 9.228,20.617 20.587,20.617 11.389,0 20.617,-9.228 20.617,-20.617 0,-11.36 -9.228,-20.588 -20.617,-20.588 -11.359,0 -20.587,9.228 -20.587,20.588 z"
         fill="#4fc9af"
         fill-rule="evenodd"
         id="path3962" />
    </g>
    <g
       id="g3968">
      <path
         clip-rule="evenodd"
         d="m 341.986,158.748 c 0,11.389 9.228,20.617 20.617,20.617 11.36,0 20.587,-9.228 20.587,-20.617 0,-11.36 -9.228,-20.588 -20.587,-20.588 -11.39,0 -20.617,9.228 -20.617,20.588 z"
         fill="#4fc9af"
         fill-rule="evenodd"
         id="path3966" />
    </g>
    <g
       id="g3972">
      <path
         clip-rule="evenodd"
         d="m 424.394,158.748 c 0,11.389 9.228,20.617 20.617,20.617 11.389,0 20.587,-9.228 20.587,-20.617 0,-11.36 -9.199,-20.588 -20.587,-20.588 -11.388,0 -20.617,9.228 -20.617,20.588 z"
         fill="#4fc9af"
         fill-rule="evenodd"
         id="path3970" />
    </g>
  </g>
</svg>
