<?xml version="1.0" encoding="UTF-8" standalone="no"?>
<svg
   xmlns:osb="http://www.openswatchbook.org/uri/2009/osb"
   xmlns:dc="http://purl.org/dc/elements/1.1/"
   xmlns:cc="http://creativecommons.org/ns#"
   xmlns:rdf="http://www.w3.org/1999/02/22-rdf-syntax-ns#"
   xmlns:svg="http://www.w3.org/2000/svg"
   xmlns="http://www.w3.org/2000/svg"
   xmlns:sodipodi="http://sodipodi.sourceforge.net/DTD/sodipodi-0.dtd"
   xmlns:inkscape="http://www.inkscape.org/namespaces/inkscape"
   id="Capa_1"
   enable-background="new 0 0 504.495 504.495"
   height="700"
   viewBox="0 0 689.73926 689.73926"
   width="700"
   version="1.1"
   sodipodi:docname="tuev.svg"
   inkscape:version="1.0.1 (3bc2e813f5, 2020-09-07)">
  <metadata
     id="metadata442">
    <rdf:RDF>
      <cc:Work
         rdf:about="">
        <dc:format>image/svg+xml</dc:format>
        <dc:type
           rdf:resource="http://purl.org/dc/dcmitype/StillImage" />
        <dc:title></dc:title>
      </cc:Work>
    </rdf:RDF>
  </metadata>
  <defs
     id="defs440">
    <linearGradient
       id="linearGradient3284"
       osb:paint="solid">
      <stop
         style="stop-color:#d5f6ff;stop-opacity:1;"
         offset="0"
         id="stop3282" />
    </linearGradient>
    <linearGradient
       inkscape:collect="always"
       id="linearGradient1310"
       osb:paint="gradient">
      <stop
         style="stop-color:#d5f6ff;stop-opacity:1;"
         offset="0"
         id="stop1306" />
      <stop
         style="stop-color:#d5f6ff;stop-opacity:0;"
         offset="1"
         id="stop1308" />
    </linearGradient>
  </defs>
  <sodipodi:namedview
     pagecolor="#ffffff"
     bordercolor="#666666"
     borderopacity="1"
     objecttolerance="10"
     gridtolerance="10"
     guidetolerance="10"
     inkscape:pageopacity="0"
     inkscape:pageshadow="2"
     inkscape:window-width="1680"
     inkscape:window-height="987"
     id="namedview438"
     showgrid="false"
     inkscape:zoom="0.50754247"
     inkscape:cx="467.37743"
     inkscape:cy="398.53214"
     inkscape:window-x="1672"
     inkscape:window-y="-8"
     inkscape:window-maximized="1"
     inkscape:current-layer="Capa_1" />
  <circle
     style="fill:#ffeeaa;fill-opacity:0;fill-rule:nonzero;stroke-width:0.985342;stroke-miterlimit:4;stroke-dasharray:none"
     id="path444"
     cx="344.86963"
     cy="344.86963"
     r="344.86963" />
  <path
     style="fill:#1964b6;fill-opacity:1;fill-rule:nonzero;stroke-width:0.999999;stroke-miterlimit:4;stroke-dasharray:none"
     d="M 314.52931,697.25316 C 218.60165,687.58274 128.02306,635.9615 70.1035,557.95356 37.582885,514.15374 16.360581,465.09467 5.8037744,409.31353 3.1859852,395.48139 2.3690208,380.95543 2.3978854,348.7555 2.4322268,310.44588 2.9384772,304.02807 7.6912263,281.65105 35.215838,152.05886 128.53432,50.747997 253.51323,14.775296 312.55639,-2.2191086 381.49364,-2.9035822 440.5972,12.917751 c 60.41227,16.171664 114.70335,48.243418 158.73827,93.772569 29.27707,30.27055 44.92881,52.14344 62.71039,87.63616 22.79,45.4897 34.15721,90.12597 36.06865,141.63271 1.73473,46.74565 -2.98698,80.90472 -17.02021,123.13191 -17.64036,53.08131 -44.14342,96.59741 -82.48652,135.43678 -74.72886,75.69611 -178.81993,113.33635 -284.07847,102.72528 z"
     id="path3664"
     transform="scale(0.9853418)" />
  <rect
     style="fill:#000000;fill-opacity:1;fill-rule:nonzero;stroke-width:0.985342;stroke-miterlimit:4;stroke-dasharray:none"
     id="rect3676"
     width="351.39297"
     height="186.37418"
     x="174.72578"
     y="231.02632" />
  <rect
     style="fill:#000000;fill-opacity:1;fill-rule:nonzero;stroke-width:0.985342;stroke-miterlimit:4;stroke-dasharray:none"
     id="rect3678"
     width="173.7551"
     height="114.54247"
     x="262.08871"
     y="404.78143" />
  <path
     style="fill:#ffffff;fill-opacity:1;stroke-width:0.999996"
     d="m 498.07388,480.87783 c 59.91936,-59.91873 59.91936,-59.91873 59.91936,-144.5008 0,-84.58209 0,-84.58209 -59.75703,-144.33974 -59.75704,-59.75765 -59.75704,-59.75765 -144.50075,-59.75765 -84.74383,0 -84.74383,0 -144.50151,59.757 -59.75765,59.75699 -59.75765,59.75699 -59.75765,144.33908 0,84.58209 0,84.58209 59.91872,144.50146 59.91867,59.91937 59.91867,59.91937 144.33903,59.91937 84.42046,0 84.42046,0 144.33983,-59.91872 z M 294.86689,507.3487 c -9.78844,-1.91609 -15.24555,-8.30681 -17.14933,-20.08306 -0.23004,-1.42318 -0.38835,-2.619 -0.35168,-2.6574 0.0977,-0.10255 10.66497,-1.38084 10.71391,-1.29603 0.0228,0.0396 0.36481,1.30716 0.75978,2.81676 1.7063,6.51981 4.94788,9.39142 10.89512,9.65155 6.60524,0.2889 11.07221,-2.91943 11.40804,-8.19366 0.33117,-5.20065 -1.09658,-6.45949 -10.98323,-9.6839 -12.40393,-4.04541 -15.72059,-6.17762 -18.56168,-11.93305 -6.06345,-12.28277 -0.20562,-25.41241 12.44842,-27.90177 3.31451,-0.65205 10.08348,-0.46267 13.11173,0.36682 6.8801,1.88455 11.77165,7.22328 13.2401,14.45051 0.98645,4.85503 0.91809,5.0208 -2.16192,5.23858 -8.22842,0.58183 -8.39172,0.552 -8.87969,-1.62061 -1.2014,-5.34927 -3.96663,-7.40486 -9.96129,-7.40486 -5.96211,0 -8.90312,1.96221 -9.14813,6.1035 -0.25142,4.24838 1.59865,5.61628 12.46317,9.21485 8.27671,2.74146 11.49083,4.33024 14.15255,6.99566 9.27422,9.28708 6.77472,28.16519 -4.48314,33.86062 -4.22272,2.1363 -12.30736,3.09444 -17.51273,2.07549 z m 51.59025,0.13177 c -8.89932,-1.21973 -14.52332,-4.80479 -17.50426,-11.15825 -2.43688,-5.19372 -2.622,-7.48225 -2.78053,-34.36652 -0.13781,-23.36923 -0.13781,-23.36923 6.35382,-23.36923 6.49163,0 6.49163,0 6.49413,21.91371 0,27.05268 0.0966,28.00882 3.08489,31.65621 3.76676,4.59687 14.19606,5.10562 18.85183,0.91963 3.40142,-3.05808 3.60118,-4.91563 3.60824,-33.54619 0,-20.94336 0,-20.94336 6.50432,-20.94336 6.49922,0 6.49922,0 6.34883,23.36923 -0.15701,24.3883 -0.31858,27.43565 -1.70728,32.21281 -1.80851,6.22104 -6.82713,10.62405 -14.29816,12.54419 -3.53672,0.90898 -11.09466,1.29697 -14.95583,0.76777 z M 382.36,472.54324 c 0,-34.01115 0,-34.01115 13.66578,-33.87003 16.96757,0.17525 18.6756,0.53153 23.44466,4.89014 6.31216,5.76905 9.06979,13.91335 9.37741,27.69512 0.43393,19.44608 -5.26646,30.97189 -17.06849,34.51136 -1.48071,0.44407 -3.98747,0.54968 -15.5918,0.65684 C 382.36,506.55436 382.36,506.55436 382.36,472.54324 Z m 25.40834,22.22288 c 6.22405,-1.30497 8.72473,-5.7941 9.52802,-17.10405 0.62252,-8.76542 -0.39561,-17.49142 -2.48994,-21.33927 -2.6577,-4.88319 -5.39005,-6.01879 -15.22266,-6.3269 -5.90296,-0.18495 -5.90296,-0.18495 -5.90296,22.50464 0,22.68962 0,22.68962 6.06464,22.68289 3.62972,-0.004 6.8509,-0.17159 8.0229,-0.41731 z m -63.8988,-51.00446 c 0,-5.17519 0,-5.17519 3.07274,-5.17519 3.07275,0 3.07275,0 3.07275,5.17519 0,5.1752 0,5.1752 -3.07275,5.1752 -3.07274,0 -3.07274,0 -3.07274,-5.1752 z m 9.70348,0 c 0,-5.17519 0,-5.17519 3.07274,-5.17519 3.07285,0 3.07285,0 3.07285,5.17519 0,5.1752 0,5.1752 -3.07285,5.1752 -3.07274,0 -3.07274,0 -3.07274,-5.1752 z M 185.3792,400.74285 c 0,-3.88139 0,-3.88139 168.3555,-3.88139 168.35557,0 168.35557,0 168.35557,3.88139 0,3.8814 0,3.8814 -168.35557,3.8814 -168.3555,0 -168.3555,0 -168.3555,-3.8814 z m 154.77067,-13.81864 c -29.02146,-0.74918 -47.9155,-13.99017 -52.53536,-36.81704 -1.19859,-5.92217 -1.31339,-9.75049 -1.3162,-43.89248 0,-33.23444 0,-33.23444 -16.82219,-33.23444 -16.81936,0 -16.81936,0 -16.81936,55.4716 0,55.47163 0,55.47163 -13.74661,55.47163 -13.74661,0 -13.74661,0 -13.74661,-55.47163 0,-55.4716 0,-55.4716 -19.08355,-55.4716 -19.08353,0 -19.08353,0 -19.08353,-10.67384 0,-10.67384 0,-10.67384 63.39617,-10.67384 63.39608,0 63.39608,0 63.39738,43.58484 8.9e-4,49.87406 -0.0629,48.66028 2.92061,55.28964 3.99073,8.86828 13.35848,13.7423 26.512,13.79418 16.6045,0.0656 26.43234,-7.31271 28.95917,-21.74082 0.40181,-2.29426 0.47473,-9.48908 0.47473,-46.81934 0,-44.1085 0,-44.1085 25.16517,-44.1085 25.16519,0 25.16519,0 42.29108,51.72995 15.50456,46.83249 17.1617,51.64782 17.50448,50.86245 0.20834,-0.47712 8.05089,-23.7556 17.42798,-51.72995 17.04918,-50.86245 17.04918,-50.86245 31.59659,-50.86245 11.49886,0 14.51724,0.0847 14.40352,0.4043 -0.0792,0.22238 -11.26579,29.9861 -24.85929,66.14161 -24.71564,65.73729 -24.71564,65.73729 -39.16679,65.74115 -14.45105,0.004 -14.45105,0.004 -15.15018,-1.85599 -0.38455,-1.02291 -9.84454,-26.38541 -21.02243,-56.36111 -11.17778,-29.97569 -20.44365,-54.79236 -20.5909,-55.14816 -0.14724,-0.3558 -0.34733,16.67383 -0.44477,37.84361 -0.19824,43.09562 -0.0379,40.15644 -2.60366,47.84315 -6.05163,18.13246 -23.64129,29.48063 -47.19229,30.44661 -2.22366,0.0913 -4.69809,0.19862 -5.49856,0.23874 -0.80058,0.0401 -2.76555,0.0391 -4.3666,-0.004 z M 323.81566,264.5648 c 0,-13.26719 0,-13.26719 7.84363,-13.18057 7.84365,0.0866 7.84365,0.0866 7.92818,13.26718 0.0846,13.18058 0.0846,13.18058 -7.84364,13.18058 -7.92817,0 -7.92817,0 -7.92817,-13.26719 z m 22.71874,0.0866 c 0.0846,-13.18058 0.0846,-13.18058 8.25153,-13.267 8.16711,-0.0864 8.16711,-0.0864 8.16711,13.18058 0,13.26698 0,13.26698 -8.25153,13.26698 -8.25164,0 -8.25164,0 -8.16711,-13.18056 z"
     id="path3658"
     sodipodi:nodetypes="ssssssssssscscssscsssssssssssssssccscssssssssssssssssscsssssssssssssssscscsssssssccssssssssscccssccssccsscsscsssc" />
</svg>
